<svg width="1400" height="600" viewBox="0 0 3807 1601" fill="none" xmlns="http://www.w3.org/2000/svg">
<mask id="mask0_203_19" style="mask-type:alpha" maskUnits="userSpaceOnUse" x="0" y="0" width="3807" height="1601">
<rect width="3807" height="1601" fill="#C4C4C4"/>
</mask>
<g mask="url(#mask0_203_19)">
<path opacity="0.02" d="M384.5 547.515C277.5 544.015 123.5 729.515 -87 965.016L-55 1650.52L3844 1686.02L3965 1243.52C3893.67 1022.18 3706.7 573.115 3529.5 547.515C3308 515.515 3340.5 768.515 3162 875.515C2983.5 982.515 2880 386.515 2533.5 390.015C2187 393.515 1801.5 1158.02 1380.5 1497.02C959.5 1836.02 630.5 547.515 384.5 547.515Z" fill="white"/>
<path opacity="0.02" d="M384.5 1008.02C145.5 1022.52 -1.5 1365.02 -5 1600.52H3844C3795.17 1410.02 3668.2 1016.22 3551 965.015C3404.5 901.015 3262 1236.52 3058.5 1390.02C2855 1543.52 2790.5 1432.52 2533.5 1197.02C2276.5 961.515 1980 1054.02 1762.5 1390.02C1545 1726.02 1294.5 1600.52 984 1322.02C673.5 1043.52 623.5 993.515 384.5 1008.02Z" fill="white"/>
<path opacity="0.02" d="M345 1390.02C145 1390.02 48.5 1222.02 -55 1068.52L-87 1811.02L3844 1997.02C3938 1888.68 4069.6 1569.22 3844 1158.02C3562 644.015 3386.2 579.515 3269 579.515C3152.5 579.515 3012 854.515 2940.5 900.515C2869 946.515 2826.5 665.015 2694 604.515C2561.5 544.015 2133.5 1268.52 1859 1322.02C1584.5 1375.52 1287.5 965.015 1070 808.015C852.5 651.015 759 1390.02 345 1390.02Z" fill="#white"/>
</g>
</svg>
